<svg id="Слой_1" data-name="Слой 1" xmlns="http://www.w3.org/2000/svg" viewBox="0 0 236.44 85.28"><defs><style>.cls-1{fill:none;stroke:#1d1d1b;stroke-miterlimit:10;stroke-width:1.5px;}.cls-2{font-size:36px;}.cls-2,.cls-3{fill:#1d1d1b;font-family:Roboto-Bold, Roboto;font-weight:700;}.cls-3{font-size:18px;}</style></defs><title>topchiklogoblack2022</title><path class="cls-1" d="M133.65,45.19a27.82,27.82,0,0,1-4.88,15.4,27.93,27.93,0,0,0-7.27-25.44c-.62-.64-1.27-1.24-1.93-1.81a27.78,27.78,0,0,0-10.45-5.58,28,28,0,0,0-17.23.63,27.86,27.86,0,0,0-5.57,2.78,28.23,28.23,0,0,0-4,3.19l0,0-.22.22-.17.16a28.41,28.41,0,0,0-3.41,4.07,27.51,27.51,0,0,1,2-5.8A27.88,27.88,0,0,1,92.13,20.42,27.72,27.72,0,0,1,103.7,17c.8-.06,1.6-.08,2.42-.07a27.61,27.61,0,0,1,11.24,2.53,27.94,27.94,0,0,1,16.29,25.77Z" transform="translate(-49.12 -1.95)"/><path class="cls-1" d="M105.07,50.35A27.95,27.95,0,0,1,91.39,68.77a27.76,27.76,0,0,1-11.57,3.46c-.8.06-1.61.08-2.42.07A27.93,27.93,0,0,1,54.75,28.6,27.86,27.86,0,0,0,62,54c.62.64,1.26,1.24,1.93,1.81A27.7,27.7,0,0,0,74.4,61.43a28,28,0,0,0,17.23-.63A27.78,27.78,0,0,0,97.19,58a28.07,28.07,0,0,0,3.72-2.88h0A12.16,12.16,0,0,0,102.06,54,27.42,27.42,0,0,0,105.07,50.35Z" transform="translate(-49.12 -1.95)"/><path class="cls-1" d="M108.84,61.72a27.84,27.84,0,0,1-5.75,10.89c-.47.54-1,1.08-1.48,1.59a27.71,27.71,0,0,1-10.15,6.49,28.06,28.06,0,0,1-15.18,1.13A27.93,27.93,0,0,1,54.44,59.69a27.89,27.89,0,0,0,23,12.61c.81,0,1.62,0,2.42-.07a28,28,0,0,0,23.3-16.08,28.07,28.07,0,0,0,1.95-5.8,27,27,0,0,0,.59-4.34h0c0-.47.07-.94.07-1.42,0-.33,0-.66,0-1a27.05,27.05,0,0,0-.48-4.44,27.37,27.37,0,0,1,2.83,5.58,28.52,28.52,0,0,1,1.64,7.32A28.21,28.21,0,0,1,108.84,61.72Z" transform="translate(-49.12 -1.95)"/><path class="cls-1" d="M119.66,58.57A27.92,27.92,0,0,1,76.28,81.82a28.06,28.06,0,0,0,15.18-1.13,27.71,27.71,0,0,0,10.15-6.49c.52-.51,1-1,1.48-1.59a27.84,27.84,0,0,0,5.75-10.89,28.21,28.21,0,0,0,.85-9.67,28.52,28.52,0,0,0-1.64-7.32,27.37,27.37,0,0,0-2.83-5.58h0a26.69,26.69,0,0,0-2.73-3.51,13.39,13.39,0,0,0-1.72-1.73,26.86,26.86,0,0,0-3.45-2.71,27.93,27.93,0,0,1,22.24,25C119.63,57,119.66,57.75,119.66,58.57Z" transform="translate(-49.12 -1.95)"/><path class="cls-1" d="M128.77,60.59A28,28,0,0,1,106.9,82a27.88,27.88,0,0,0,12.76-23.45c0-.82,0-1.62-.1-2.42a27.88,27.88,0,0,0-9.74-18.86,27.71,27.71,0,0,0-12.5-6.09,27.67,27.67,0,0,0-4.5-.54h0q-.51,0-1,0t-1,0a27.92,27.92,0,0,0-4.5.51,27.86,27.86,0,0,1,5.57-2.78,28,28,0,0,1,17.23-.63,27.78,27.78,0,0,1,10.45,5.58c.66.57,1.31,1.17,1.93,1.81a27.93,27.93,0,0,1,7.27,25.44Z" transform="translate(-49.12 -1.95)"/><path class="cls-1" d="M129.08,29.5a28,28,0,0,0-11.72-10.08,27.61,27.61,0,0,0-11.24-2.53c-.82,0-1.62,0-2.42.07a27.72,27.72,0,0,0-11.57,3.46A27.88,27.88,0,0,0,80.4,33a27.55,27.55,0,0,0-2.59,11.38A28.19,28.19,0,0,0,78.29,50a27.85,27.85,0,0,1-4.46-12.9,28.21,28.21,0,0,1,.85-9.67,27.84,27.84,0,0,1,5.75-10.89c.47-.54,1-1.08,1.48-1.59A27.63,27.63,0,0,1,92.06,8.5a28.06,28.06,0,0,1,15.18-1.13A28,28,0,0,1,129.08,29.5Z" transform="translate(-49.12 -1.95)"/><path class="cls-1" d="M107.24,7.37A28.06,28.06,0,0,0,92.06,8.5,27.63,27.63,0,0,0,81.91,15c-.52.51-1,1-1.48,1.59a27.84,27.84,0,0,0-5.75,10.89,28,28,0,0,0,.79,17A28.22,28.22,0,0,0,86.19,58,28,28,0,0,1,67.58,44.56,27.58,27.58,0,0,1,64,33c-.07-.8-.1-1.6-.1-2.41A27.92,27.92,0,0,1,107.24,7.37Z" transform="translate(-49.12 -1.95)"/><path class="cls-1" d="M97.19,58a27.78,27.78,0,0,1-5.56,2.78,28,28,0,0,1-17.23.63A27.7,27.7,0,0,1,64,55.85c-.67-.57-1.31-1.17-1.93-1.81A27.92,27.92,0,0,1,76.62,7.17,27.88,27.88,0,0,0,63.86,30.63c0,.81,0,1.61.1,2.41a27.58,27.58,0,0,0,3.62,11.52A27.89,27.89,0,0,0,86.19,58a28.56,28.56,0,0,0,5.59.56A27.57,27.57,0,0,0,97.19,58Z" transform="translate(-49.12 -1.95)"/><text class="cls-2" transform="translate(90.55 54.63)">Nigma</text><text class="cls-3" transform="translate(187.37 30.5)">music</text></svg>