<svg id="Слой_1" data-name="Слой 1" xmlns="http://www.w3.org/2000/svg" xmlns:xlink="http://www.w3.org/1999/xlink" viewBox="0 0 1497.62 1497.66"><defs><style>.cls-1,.cls-2,.cls-3,.cls-4,.cls-5,.cls-6,.cls-7,.cls-8{stroke:#fff;stroke-miterlimit:10;stroke-width:8.37px;}.cls-1{fill:url(#Безымянный_градиент_32);}.cls-2{fill:url(#Безымянный_градиент_32-2);}.cls-3{fill:url(#Безымянный_градиент_32-3);}.cls-4{fill:url(#Безымянный_градиент_32-4);}.cls-5{fill:url(#Безымянный_градиент_32-5);}.cls-6{fill:url(#Безымянный_градиент_32-6);}.cls-7{fill:url(#Безымянный_градиент_32-7);}.cls-8{fill:url(#Безымянный_градиент_32-8);}</style><linearGradient id="Безымянный_градиент_32" x1="763.32" y1="895.84" x2="1744.63" y2="895.84" gradientUnits="userSpaceOnUse"><stop offset="0.12" stop-color="#374f9e"/><stop offset="1" stop-color="#ae5ea1"/></linearGradient><linearGradient id="Безымянный_градиент_32-2" x1="255.37" y1="1104.15" x2="1236.66" y2="1104.15" xlink:href="#Безымянный_градиент_32"/><linearGradient id="Безымянный_градиент_32-3" x1="336.59" y1="1287.42" x2="1320.51" y2="1287.42" xlink:href="#Безымянный_градиент_32"/><linearGradient id="Безымянный_градиент_32-4" x1="724.87" y1="1253.28" x2="1496.01" y2="1253.28" xlink:href="#Безымянный_градиент_32"/><linearGradient id="Безымянный_градиент_32-5" x1="903.39" y1="1173.54" x2="1669.23" y2="1173.54" xlink:href="#Безымянный_градиент_32"/><linearGradient id="Безымянный_градиент_32-6" x1="679.49" y1="712.56" x2="1663.39" y2="712.56" xlink:href="#Безымянный_градиент_32"/><linearGradient id="Безымянный_градиент_32-7" x1="503.99" y1="746.71" x2="1275.11" y2="746.71" xlink:href="#Безымянный_градиент_32"/><linearGradient id="Безымянный_градиент_32-8" x1="330.76" y1="826.45" x2="1096.59" y2="826.45" xlink:href="#Безымянный_градиент_32"/></defs><title>lnigma</title><path class="cls-1" d="M1744.58,1010.66a494.09,494.09,0,0,1-86.76,273.59,495.53,495.53,0,0,0-129.11-452.06q-16.61-17.07-34.4-32.21a493.2,493.2,0,0,0-185.78-99.27A498.22,498.22,0,0,0,1002.37,712a491.62,491.62,0,0,0-99,49.34,497.63,497.63,0,0,0-72,56.73c-.21.18-.41.38-.61.58-1.32,1.26-2.64,2.51-3.93,3.78-1,1-2,1.92-2.93,2.89a494.53,494.53,0,0,0-60.6,72.47A494.12,494.12,0,0,1,871,681.26a498.38,498.38,0,0,1,135.48-111,493,493,0,0,1,205.79-61.52q21.23-1.51,42.9-1.23a496.25,496.25,0,0,1,489.39,503.18Z" transform="translate(-251.19 -251.17)"/><path class="cls-2" d="M1236.66,1102.27a496.3,496.3,0,0,1-449,389q-21.23,1.5-42.89,1.23A496.4,496.4,0,0,1,342.15,715.75a495.48,495.48,0,0,0,129.14,452.06q16.6,17.07,34.4,32.19a493,493,0,0,0,185.78,99.29A498.25,498.25,0,0,0,997.63,1288a494.71,494.71,0,0,0,165-100.55s0,0,0,0a248,248,0,0,0,20.41-19.82A497.36,497.36,0,0,0,1236.66,1102.27Z" transform="translate(-251.19 -251.17)"/><path class="cls-3" d="M1303.56,1304.32a493.69,493.69,0,0,1-102.11,193.59q-12.51,14.58-26.31,28.41a496.39,496.39,0,0,1-838.55-258,495.59,495.59,0,0,0,408.2,224.14q21.66.3,42.89-1.23a493.39,493.39,0,0,0,205.77-61.5,495,495,0,0,0,253.71-404.6.58.58,0,0,0,0-.22q1.23-12.41,1.25-25.15,0-8.88-.63-17.59a496.8,496.8,0,0,0-8.49-79.05,494.76,494.76,0,0,1,79.33,229.31A498.05,498.05,0,0,1,1303.56,1304.32Z" transform="translate(-251.19 -251.17)"/><path class="cls-4" d="M1496,1248.33a496.4,496.4,0,0,1-771.14,413.36,495.54,495.54,0,0,0,450.27-135.37q13.81-13.82,26.31-28.41a496.27,496.27,0,0,0,37.87-594.75v0a496.34,496.34,0,0,0-48.6-62.41,245.7,245.7,0,0,0-30.53-30.67,495.38,495.38,0,0,0-61.27-48.15,494.5,494.5,0,0,1,222.15,108.17,499.08,499.08,0,0,1,108.75,130.46,493.08,493.08,0,0,1,64.35,204.91Q1496,1226.65,1496,1248.33Z" transform="translate(-251.19 -251.17)"/><path class="cls-5" d="M1657.82,1284.25a496.54,496.54,0,0,1-388.68,380.93A495.69,495.69,0,0,0,1496,1248.33q0-21.66-1.84-42.88a493.08,493.08,0,0,0-64.35-204.91,498.19,498.19,0,0,0-223.45-203.6,493,493,0,0,0-107.45-35,499.85,499.85,0,0,0-80.08-9.57h-.29c-6-.44-12.11-.67-18.24-.67q-8.55,0-17,.58a495.82,495.82,0,0,0-80,9.08,491.62,491.62,0,0,1,99-49.34,496.34,496.34,0,0,1,491.94,88q17.76,15.15,34.4,32.21a495.53,495.53,0,0,1,129.11,452.06Z" transform="translate(-251.19 -251.17)"/><path class="cls-6" d="M1663.39,731.6a495.63,495.63,0,0,0-408.2-224.12q-21.66-.3-42.9,1.23a493,493,0,0,0-205.79,61.52A498.39,498.39,0,0,0,798,794.66a491.84,491.84,0,0,0-34.71,103.12,501.39,501.39,0,0,0-2.68,199,496.29,496.29,0,0,1,37.91-594.7q12.51-14.58,26.31-28.41A496.39,496.39,0,0,1,1663.39,731.6Z" transform="translate(-251.19 -251.17)"/><path class="cls-7" d="M1275.11,338.31A495.61,495.61,0,0,0,824.86,473.68Q811,487.5,798.55,502.09a496.3,496.3,0,0,0-37.91,594.7A501.09,501.09,0,0,0,901,1238.07,496.27,496.27,0,0,1,505.83,794.52Q504,773.34,504,751.67a496.39,496.39,0,0,1,771.12-413.36Z" transform="translate(-251.19 -251.17)"/><path class="cls-8" d="M1096.59,1238.65a494,494,0,0,1-233.48,78.15,499.19,499.19,0,0,1-171.64-17.51A493,493,0,0,1,505.69,1200q-17.78-15.09-34.4-32.19a496.39,496.39,0,0,1,259.57-833A495.69,495.69,0,0,0,504,751.67q0,21.66,1.84,42.85A496.2,496.2,0,0,0,901,1238.07a501.29,501.29,0,0,0,195.55.58Z" transform="translate(-251.19 -251.17)"/></svg>